<?xml version="1.0" encoding="UTF-8"?>
<svg width="16px" height="16px" viewBox="0 0 16 16" version="1.1" xmlns="http://www.w3.org/2000/svg" xmlns:xlink="http://www.w3.org/1999/xlink">
    <!-- Generator: Sketch 44.1 (41455) - http://www.bohemiancoding.com/sketch -->
    <title>x</title>
    <desc>Created with Sketch.</desc>
    <defs></defs>
    <g id="Symbols" stroke="none" stroke-width="1" fill="none" fill-rule="evenodd">
        <g id="X" transform="translate(-12.000000, -13.000000)" fill="#FFFFFF">
            <path d="M26.6559159,24.9114922 L22.6291583,20.8847346 L26.8875136,16.6261915 C27.1416513,16.3722416 27.1416513,15.9607002 26.8880771,15.7067503 L25.0490071,13.8676803 C24.7948694,13.614294 24.3842671,13.614294 24.1301295,13.8684316 L19.8772213,18.1327976 L15.6261915,13.8815799 C15.3722416,13.6274423 14.9607002,13.6274423 14.7067503,13.8810164 L12.8676803,15.7200865 C12.614294,15.9742241 12.614294,16.3848264 12.8684316,16.6389641 L17.129041,20.8883034 L12.8810164,25.1479736 C12.6272544,25.4019234 12.6272544,25.813277 12.8815799,26.0674147 L14.4700811,27.6559159 C14.6581017,27.8441243 14.9017207,28.0915 15.150599,28.0915 C15.3994774,28.0915 15.6695808,27.8441243 15.8576014,27.6559159 L19.880978,23.6325393 L24.1477858,27.888265 C24.4019234,28.1416513 24.8130892,28.1416513 25.0674147,27.8877015 L26.6559159,26.2990124 C26.8441243,26.1109919 27.0911243,25.8673729 27.0911243,25.6184945 C27.0911243,25.3694283 26.8441243,25.0995127 26.6559159,24.9114922" id="x"></path>
        </g>
    </g>
</svg>